<?xml version="1.0" encoding="UTF-8"?>
<svg xmlns="http://www.w3.org/2000/svg" xmlns:xlink="http://www.w3.org/1999/xlink" width="40px" height="40px" viewBox="0 0 40 40" version="1.1">
<g id="surface1">
<path style=" stroke:none;fill-rule:nonzero;fill:rgb(30.588236%,74.117649%,78.823531%);fill-opacity:1;" d="M 12.316406 14.769531 C 12.734375 13.976562 13.386719 12.96875 13.875 12.195312 C 14.746094 10.816406 15.628906 9.445312 16.515625 8.078125 C 17.203125 7.019531 17.878906 5.957031 18.542969 4.886719 C 18.988281 4.175781 19.46875 3.351562 19.933594 2.664062 C 20.105469 2.703125 20.320312 3.074219 20.421875 3.234375 L 24.941406 10.378906 C 28.328125 15.640625 32.394531 21.542969 30.824219 28.070312 C 30.550781 29.21875 30.128906 30.382812 29.53125 31.402344 C 29.34375 31.679688 29.175781 32.027344 28.9375 32.375 C 27.3125 34.753906 24.796875 36.558594 21.933594 37.074219 C 19.15625 37.585938 16.292969 36.960938 13.976562 35.34375 C 11.257812 33.453125 9.609375 30.566406 9.023438 27.335938 C 8.296875 23.339844 9.617188 19.578125 11.539062 16.121094 C 11.789062 15.667969 12.019531 15.199219 12.316406 14.769531 Z M 16.394531 18.578125 C 14.941406 21.054688 13.636719 23.351562 14.421875 26.375 C 14.828125 27.984375 15.859375 29.371094 17.289062 30.21875 C 18.5 30.9375 19.949219 31.140625 21.308594 30.78125 C 22.824219 30.382812 24.113281 29.339844 24.894531 27.988281 C 25.003906 27.804688 25.105469 27.617188 25.199219 27.425781 C 25.3125 27.140625 25.425781 26.851562 25.511719 26.554688 C 25.863281 25.339844 25.859375 23.945312 25.546875 22.722656 C 24.707031 19.476562 21.621094 15.871094 19.976562 12.875 C 19.78125 13.3125 19.175781 14.230469 18.894531 14.679688 Z M 16.394531 18.578125 "/>
<path style=" stroke:none;fill-rule:nonzero;fill:rgb(5.490196%,70.19608%,61.56863%);fill-opacity:1;" d="M 29.53125 31.402344 C 29.34375 31.679688 29.175781 32.027344 28.9375 32.375 C 27.3125 34.753906 24.796875 36.558594 21.933594 37.074219 C 19.15625 37.585938 16.292969 36.960938 13.976562 35.34375 C 11.257812 33.453125 9.609375 30.566406 9.023438 27.335938 C 8.296875 23.339844 9.617188 19.578125 11.539062 16.121094 C 11.789062 15.667969 12.019531 15.199219 12.316406 14.769531 L 14.742188 17.113281 C 14.996094 17.367188 16.105469 18.523438 16.394531 18.578125 C 14.941406 21.054688 13.636719 23.351562 14.421875 26.375 C 14.828125 27.984375 15.859375 29.371094 17.289062 30.21875 C 18.5 30.9375 19.949219 31.140625 21.308594 30.78125 C 22.824219 30.382812 24.113281 29.339844 24.894531 27.988281 C 25.003906 27.804688 25.105469 27.617188 25.199219 27.425781 L 25.21875 27.4375 C 25.351562 27.511719 25.414062 27.507812 25.539062 27.613281 C 25.980469 27.992188 26.394531 28.414062 26.808594 28.8125 L 28.585938 30.539062 C 28.808594 30.757812 29.292969 31.253906 29.53125 31.402344 Z M 29.53125 31.402344 "/>
</g>
</svg>
