<?xml version="1.0" encoding="UTF-8"?>
<svg xmlns="http://www.w3.org/2000/svg" xmlns:xlink="http://www.w3.org/1999/xlink" viewBox="0 0 16 16" version="1.1">
<g id="surface1">
<path style=" stroke:none;fill-rule:nonzero;fill:rgb(30.588236%,74.117649%,78.823531%);fill-opacity:1;" d="M 4.925781 5.90625 C 5.09375 5.589844 5.355469 5.1875 5.550781 4.878906 C 5.898438 4.328125 6.25 3.777344 6.605469 3.230469 C 6.882812 2.808594 7.152344 2.382812 7.417969 1.953125 C 7.59375 1.667969 7.789062 1.339844 7.972656 1.066406 C 8.042969 1.082031 8.128906 1.230469 8.167969 1.292969 L 9.976562 4.152344 C 11.332031 6.257812 12.957031 8.617188 12.332031 11.226562 C 12.21875 11.6875 12.050781 12.152344 11.8125 12.558594 C 11.738281 12.671875 11.671875 12.8125 11.574219 12.949219 C 10.925781 13.902344 9.917969 14.625 8.773438 14.828125 C 7.664062 15.035156 6.515625 14.785156 5.589844 14.136719 C 4.503906 13.382812 3.84375 12.226562 3.609375 10.933594 C 3.320312 9.335938 3.847656 7.832031 4.617188 6.449219 C 4.714844 6.265625 4.808594 6.078125 4.925781 5.90625 Z M 6.558594 7.433594 C 5.976562 8.421875 5.453125 9.339844 5.769531 10.550781 C 5.929688 11.195312 6.34375 11.746094 6.914062 12.085938 C 7.398438 12.375 7.980469 12.457031 8.523438 12.3125 C 9.128906 12.152344 9.644531 11.734375 9.957031 11.195312 C 10 11.121094 10.042969 11.046875 10.078125 10.96875 C 10.125 10.855469 10.171875 10.742188 10.203125 10.621094 C 10.347656 10.136719 10.34375 9.578125 10.21875 9.089844 C 9.882812 7.789062 8.648438 6.347656 7.992188 5.152344 C 7.910156 5.324219 7.671875 5.691406 7.558594 5.871094 Z M 6.558594 7.433594 "/>
<path style=" stroke:none;fill-rule:nonzero;fill:rgb(5.490196%,70.19608%,61.56863%);fill-opacity:1;" d="M 11.8125 12.558594 C 11.738281 12.671875 11.671875 12.8125 11.574219 12.949219 C 10.925781 13.902344 9.917969 14.625 8.773438 14.828125 C 7.664062 15.035156 6.515625 14.785156 5.589844 14.136719 C 4.503906 13.382812 3.84375 12.226562 3.609375 10.933594 C 3.320312 9.335938 3.847656 7.832031 4.617188 6.449219 C 4.714844 6.265625 4.808594 6.078125 4.925781 5.90625 L 5.898438 6.847656 C 6 6.945312 6.441406 7.410156 6.558594 7.433594 C 5.976562 8.421875 5.453125 9.339844 5.769531 10.550781 C 5.929688 11.195312 6.34375 11.746094 6.914062 12.085938 C 7.398438 12.375 7.980469 12.457031 8.523438 12.3125 C 9.128906 12.152344 9.644531 11.734375 9.957031 11.195312 C 10 11.121094 10.042969 11.046875 10.078125 10.96875 L 10.085938 10.976562 C 10.140625 11.003906 10.167969 11.003906 10.214844 11.046875 C 10.390625 11.195312 10.558594 11.363281 10.722656 11.527344 L 11.433594 12.214844 C 11.523438 12.304688 11.71875 12.503906 11.8125 12.558594 Z M 11.8125 12.558594 "/>
</g>
</svg>
